<svg width="32" height="32" viewBox="0 0 32 32" fill="none" xmlns="http://www.w3.org/2000/svg">
  <!-- Background circle with gradient -->
  <circle cx="16" cy="16" r="16" fill="url(#gradient)" />
  
  <!-- Satellite dish/signal icon -->
  <g transform="translate(6, 6)">
    <!-- Main satellite dish -->
    <path d="M10 20C15.5228 20 20 15.5228 20 10C20 4.47715 15.5228 0 10 0C4.47715 0 0 4.47715 0 10C0 15.5228 4.47715 20 10 20Z" 
          fill="none" stroke="white" stroke-width="1.5" stroke-linecap="round"/>
    
    <!-- Signal waves -->
    <path d="M6 10C6 7.79086 7.79086 6 10 6" 
          fill="none" stroke="white" stroke-width="1.5" stroke-linecap="round"/>
    <path d="M4 10C4 6.68629 6.68629 4 10 4" 
          fill="none" stroke="white" stroke-width="1.5" stroke-linecap="round"/>
    <path d="M2 10C2 5.58172 5.58172 2 10 2" 
          fill="none" stroke="white" stroke-width="1.5" stroke-linecap="round"/>
    
    <!-- Center dot -->
    <circle cx="10" cy="10" r="1.5" fill="white"/>
    
    <!-- Connection line -->
    <line x1="10" y1="11.5" x2="10" y2="18" stroke="white" stroke-width="1.5" stroke-linecap="round"/>
    
    <!-- Base -->
    <rect x="8" y="18" width="4" height="2" rx="1" fill="white"/>
  </g>
  
  <!-- Gradient definition -->
  <defs>
    <linearGradient id="gradient" x1="0%" y1="0%" x2="100%" y2="100%">
      <stop offset="0%" style="stop-color:#0ea5e9;stop-opacity:1" />
      <stop offset="100%" style="stop-color:#d946ef;stop-opacity:1" />
    </linearGradient>
  </defs>
</svg>
